<svg width="1024" height="1024" viewBox="0 0 1024 1024" fill="none" xmlns="http://www.w3.org/2000/svg">
<path fill-rule="evenodd" clip-rule="evenodd" d="M597.333 938.667H426.667C265.771 938.667 185.301 938.667 135.339 888.661C85.376 838.656 85.3333 758.229 85.3333 597.333V426.667C85.3333 265.771 85.3333 185.301 135.339 135.339C185.344 85.376 266.197 85.3333 427.947 85.3333C453.803 85.3333 474.496 85.3333 491.947 86.0586C491.378 89.472 491.093 92.9422 491.093 96.4693L490.667 217.387C490.667 264.192 490.667 305.579 495.147 338.901C500.011 375.04 511.147 411.179 540.672 440.704C570.112 470.144 606.293 481.323 642.432 486.187C675.755 490.667 717.141 490.667 763.947 490.667H936.832C938.667 513.451 938.667 541.44 938.667 578.688V597.333C938.667 758.229 938.667 838.699 888.661 888.661C838.656 938.624 758.229 938.667 597.333 938.667Z" fill="#5667F5"/>
<path d="M825.685 324.992L656.725 172.971C608.64 129.664 584.619 107.989 555.051 96.6827L554.667 213.333C554.667 313.899 554.667 364.203 585.899 395.435C617.131 426.667 667.435 426.667 768 426.667H920.747C905.301 396.629 877.568 371.712 825.685 324.992Z" fill="url(#paint0_linear_14_5)"/>
<path d="M424.286 581C434.819 581 444.92 585.144 452.368 592.52C459.816 599.897 464 609.901 464 620.333V777.667C464 788.099 459.816 798.103 452.368 805.48C444.92 812.856 434.819 817 424.286 817H225.714C215.181 817 205.08 812.856 197.632 805.48C190.184 798.103 186 788.099 186 777.667V620.333C186 609.901 190.184 599.897 197.632 592.52C205.08 585.144 215.181 581 225.714 581H424.286ZM285.286 725.778C285.286 740.612 300.868 750.284 314.161 743.701L368.236 716.923C383.069 709.578 383.069 688.422 368.236 681.077L314.161 654.299C300.868 647.716 285.286 657.388 285.286 672.222V725.778Z" fill="white"/>
<defs>
<linearGradient id="paint0_linear_14_5" x1="614.4" y1="427.52" x2="846.08" y2="172.8" gradientUnits="userSpaceOnUse">
<stop stop-color="#F2EEFF"/>
<stop offset="1" stop-color="#AC9AE6"/>
</linearGradient>
</defs>
</svg>
